<?xml version="1.0" encoding="UTF-8"?>
<svg id="Layer_2" data-name="Layer 2" xmlns="http://www.w3.org/2000/svg" viewBox="0 0 463 174.75">
  <defs>
    <style>
      .cls-1 {
        fill: #d22b39;
      }

      .cls-2 {
        fill: #d12836;
      }

      .cls-3 {
        fill: #d22a39;
      }

      .cls-4 {
        fill: #d32d3c;
      }

      .cls-5 {
        fill: #d22938;
      }

      .cls-6 {
        fill: #d22937;
      }

      .cls-7 {
        fill: #3366b4;
      }

      .cls-8 {
        fill: #3467b4;
      }

      .cls-9 {
        fill: #d12736;
      }
    </style>
  </defs>
  <g id="Layer_1-2" data-name="Layer 1">
    <path class="cls-3" d="M215.18,174.75c-19.26-5.27-15.52-32.45,6.07-29.85,1.85.22,8.9,2.18,8.21,4.66-.11.38-3.56,3.77-4.04,3.98-1.83.8-2.68-.61-4.32-1.17-9.34-3.2-13.67,9.55-6.15,14.13,3.45,2.1,8.6,1.62,8.22-3.39h-5.33c.11-.33-.33-.72-.33-.83v-4.99s.46-.5.5-.5h12.82v12.14c0,.43-4,3.53-4.77,3.89l-5.56,1.94h-5.33Z"/>
    <rect class="cls-8" x="462.67" y="50.32" width=".33" height="19.96"/>
    <polygon class="cls-7" points="288.44 40.35 293.79 104.88 272.8 106.88 270.14 83.59 262.06 108.13 249.53 109.83 241.57 88.67 240.83 88.25 238.13 111.84 215.51 115.19 223.88 49.03 247.5 46.13 256.81 75.93 267.18 42.37 288.44 40.35"/>
    <path class="cls-7" d="M358.74,39c11.58.33,25.17-.56,36.24,3.23,18.13,6.21,22.37,33.02,5.45,43.17l14.28,24.13-24.32-2.82-10.65-17.14v16.3l-20.98-1V39ZM379.39,70.94c7.13,1.67,14.09-7.29,6.56-11.71-.95-.56-6.56-2.14-6.56-.76v12.48Z"/>
    <path class="cls-7" d="M204.52,71.61c-5.28-1.76-10.76-3.94-16.49-3.33-2.18.23-5.02,2.03-3.52,4.52,1.61,2.67,11.54,3.33,14.75,4.23,13.6,3.82,16.36,18.36,9.98,29.74-9.5,16.96-35.02,15.2-50.32,8.06-.25-1.55.49-3.02.95-4.46,1.52-4.68,3.88-9.09,5.35-13.79,2.7.43,5.01,2.02,7.64,2.81,3.37,1.02,11.43,2.42,14-.32,3.27-3.49-2.28-5.38-4.94-6.07-4.77-1.24-9.42-1.22-13.95-3.7-9.98-5.48-9.92-19.32-4.24-27.97,8.58-13.08,26.84-12.71,40.44-9.52.98.23,6.11,1.4,6.3,2.04.37,1.24-5.71,15.18-5.98,17.76Z"/>
    <path class="cls-9" d="M21.32,92.9v20.29l-21.32-3.66V41.33c7.04.59,14.12,1.28,21.1,2.38,20.35,3.23,34.85,7.43,32.86,31.71-.51,6.28-3.94,13.02-9.65,15.98-7.35,3.82-15.14,2.13-22.99,1.49ZM21.65,62.29v12.81c2.93,1.54,8.51,1.04,9.68-2.64,2.22-7.03-3.8-9.76-9.68-10.17Z"/>
    <path class="cls-7" d="M355.41,104.88l-19.12-.64-1.57-6.64c-4.15-.15-8.32.08-12.47-.02-1.19-.03-2.65-.76-3.82-.18-1.46.72-1.04,6.39-2.2,6.78l-19.78.71,18.7-66.82,21.11.28,19.15,66.54ZM330.1,81.59l-4.33-15.3-3.99,15.3h8.33Z"/>
    <path class="cls-2" d="M80.28,100.89l19.32,1.33-.34,17.63-41.26-3.03,1.29-65.84,40.31,3.66-.33,16.97-17.99-1.33-.34,7.32,16.99,1.33v14.14c0,.14-.52.56-.8.48l-16.85-.98v8.32Z"/>
    <path class="cls-7" d="M462.67,50.32v19.96l-12.32-1.66v46.25l-23.32-3.66v-46.58l-11.83-.67c-.27.01-.83-.31-.83-.5v-19.8l48.3,6.65Z"/>
    <path class="cls-5" d="M150.56,55.31v17.3h-10.99l-.81,46.93c-.24.34-.65.28-1,.33-4.59.55-10.83-.16-15.69-.03-1.62.05-5.56,1.41-5.83-.8-.52-4.2.31-8.81.36-12.98.13-9.86-.34-19.79-.03-29.64.02-.63.87-3.81-.15-3.81h-9.99c-.18,0-.74-.51-1.17-.33v-16.47s.46-.5.5-.5h44.8Z"/>
    <path class="cls-6" d="M212.77.17c27.6-3.12,23.94,37.71-2.42,36.5-21.92-1-18.67-34.11,2.42-36.5ZM200.53,21.04c1.77-1.83,2.57-4.36,4.05-6.43,1.71-2.38,3.81-4.15,6.3-5.68,1.23-.76,4.69-2.11,5.29-2.7,1.12-1.09-1.36-1.41-2.16-1.48-7.65-.71-14.96,9.08-13.48,16.3Z"/>
    <path class="cls-8" d="M153.22,53.31c-13.16-17.57-33.94-29.19-55.56-32.83-11.29-1.9-23.82-2.06-35.11,0-3.67.67-7.17,2.21-10.92,2.23-1.01-.98,3.75-3.66,4.44-4.05,14.39-8.08,36.82-10.69,52.91-7.82,21.93,3.91,39.67,20.63,44.24,42.48Z"/>
    <path class="cls-4" d="M51.63,160.44v-14.14c0-1.28,6.94-.88,7.99-.5v27.45c0,1.22-6.12,1.01-7.19.52l-10.8-13.66v13.14c0,1.19-7.17.82-8.33.5v-27.45c0-1.07,6.14-1.19,6.98-.32l11.34,14.46Z"/>
    <path class="cls-6" d="M189.86,160.77v-14.97c2.5-.5,5.15-.5,7.66,0v27.45c0,1.15-6.07,1.04-6.99.66-1.17-.49-7.73-10.44-9.34-12.29-.47-.54-1.03-1.16-1.66-1.51v13.14c0,1.18-6.87.81-7.99.5v-27.45c0-1.09,5.91-1.1,6.79-.46l11.53,14.94Z"/>
    <path class="cls-4" d="M132.24,145.8v9.98h8.66v-9.98c.33.11.72-.33.83-.33h6.99s.5.46.5.5v27.28c0,1.13-8.33,1.13-8.33,0v-10.48h-8.66v10.98c-1.19.32-8.66.71-8.66-.5v-26.95c0-1.15,7.65-1,8.66-.5Z"/>
    <path class="cls-1" d="M383.72,152.12v3.99h10.49c1.62,0,1.43,6.65.33,6.65h-10.83v4.33h13.16s.5.46.5.5v5.66c0,.3-1.13.75-1.52.81-1.27.2-3.87.3-5.29.37-4.66.21-9.29-.21-13.93-.42-.66-.15-1.21-.58-1.42-1.24s-.47-3.95-.49-4.83c-.17-6.17.77-12.66.7-18.99-.01-.94-.73-2.27.07-3.07.95-.94,14.26-.9,16.42-.76.87.06,4.48.36,4.48,1.18v5.32s-.46.5-.5.5h-12.16Z"/>
    <path class="cls-5" d="M19.95,169.12c-.36-.31-8.96-.14-9.41.02-.99.34-1.89,4.33-2.27,4.55-.55.32-7.02.6-7.31.19-.25-.34-.3-1.1-.24-1.55.26-1.92,2.19-6.61,2.93-8.75,1.76-5.05,3.98-11.7,6.18-16.45.23-.51.49-1.43,1.05-1.62.52-.18,7.19-.19,7.93-.05.26.05.5.11.7.3,3.73,8.86,6.78,18.11,10.13,27.16-.04,1.71-6.92,1.34-8.08.74s-1.2-3.38-1.61-4.55ZM12.32,163.1h5.33c-.55-2.72-1.37-5.62-2.24-8.25-.13-.38.09-.94-.58-.73-.45.14-2.25,7.86-2.5,8.98Z"/>
    <path class="cls-6" d="M353.08,165.76v7.98c-1.13.22-8.33.75-8.33-.5v-26.95c0-.41,1.38-.79,1.83-.84,3.52-.41,13.3-.29,16.49.85,5.29,1.89,7.53,6.85,6.25,12.22-1.76,7.39-10.02,7.52-16.24,7.24ZM352.75,159.44h6.5c.48,0,2.17-1.73,2.35-2.31,1.63-5.21-5.44-5.63-8.84-4.68v6.99Z"/>
    <path class="cls-3" d="M430.43,171.02c-.65-1.12,1.84-5.96,2.82-6.22.93-.24,3.34,1.71,4.44,2.12,1.93.73,9.11,1.37,7.49-2.15-.79-1.71-6.86-2.54-8.72-3.27-4.6-1.8-6.74-6.6-4.77-11.22,2.79-6.56,12.83-6.27,18.42-4.08,4.9,1.93,1.45,4.46-.64,7.22-2.65-.85-6.52-3.28-9.24-1.27-3.46,2.55,6.37,4.57,7.55,5.04,4.85,1.95,7.19,6.06,5.4,11.23-2.49,7.19-13.31,6.76-19.14,4.49-.49-.19-3.49-1.71-3.6-1.89Z"/>
    <path class="cls-8" d="M191.19,15.38c-1.31,5.61-.17,11.18,1.32,16.61-8.86,2.51-17.19,7.28-23.97,13.49-4.14,3.79-6.86,8.47-10.65,12.48,3.71-18.15,16.71-34.49,33.3-42.58Z"/>
    <path class="cls-3" d="M277.25,155.57c6.39-6.23,21.09-3.38,21.86,6.71,1.23,16.21-26.57,16.29-24.97-.33.2-2.04,1.65-4.95,3.11-6.37ZM284.37,158.85c-3.53.79-3.65,8.42,1.01,9.17,7.13,1.15,7.38-8.24,2.84-9.16-.9-.18-2.97-.2-3.85,0Z"/>
    <path class="cls-3" d="M71.78,145.47c1.07.31,5.47,9.58,6.67,10.98l6.33-10.98h7.83c.15,1.07-.08,1.74-.49,2.68-1.18,2.73-9.51,13.55-9.51,15.12v9.98c0,1.23-8.33,1.07-8.33,0v-9.98c0-.87-8.14-12.21-9.26-14.37-.58-1.12-1.28-2.08-1.06-3.43,2.02.37,6.1-.5,7.83,0Z"/>
    <path class="cls-4" d="M419.03,152.45v20.96c-1.32.76-8.66,1.26-8.66-.5v-20.46h-7.16s-.5-.46-.5-.5v-6.15c.61-.15,1.17-.3,1.82-.35,6.73-.53,14.38.29,21.16.19.16.07.67.6.67.66v5.66s-.46.5-.5.5h-6.83Z"/>
    <path class="cls-4" d="M112.59,152.45v20.46c0,.07-.83.91-1.01.99-.88.4-7.65.49-7.65-.66v-20.79h-7.16s-.5-.46-.5-.5v-5.99s.46-.5.5-.5h21.98c.06,0,.83.77.83.83v5.66s-.46.5-.5.5h-6.5Z"/>
    <path class="cls-1" d="M265.48,153.45h4.83c.76,0,.76,6.32,0,6.32h-4.83v13.47c0,.06-.77.83-.83.83h-6c-1.49,0-.51-3.98-.49-4.81.04-1.65.29-7.87-.06-8.95s-2.6-.09-3.14-.86c-.25-.36-.25-4.52-.08-5.11.41-1.38,2.43-.74,2.6-.9.16-.15.14-3.22.5-4.32,1.66-5.14,7.84-7.5,12.67-5.35,2.03.91.87,5.2-.19,5.86s-6.04-2.04-5,3.81Z"/>
    <path class="cls-6" d="M164.22,145.8v27.95c-1.2.41-7.99.82-7.99-.5v-27.45c.83-.55,7.99-.4,7.99,0Z"/>
    <path class="cls-1" d="M311.11,154.78c1.47-2.77,10.16-3.22,10.94-.43.13.48-2.09,5.21-2.34,5.37-.88.55-3.19-.84-4.7-.54-1.64.32-3.71,2.01-3.92,3.75-.24,1.99.48,9.71-.29,10.69-.59.75-6.37.81-6.86-.2l-.18-20.07c.16-.68,8.1-1.85,7.35,1.44Z"/>
  </g>
</svg>